<svg width="16" height="16" viewBox="0 0 16 16" fill="none" xmlns="http://www.w3.org/2000/svg">
<path d="M3.49995 13H12.4999C12.6249 12.9998 12.7454 13.0463 12.8377 13.1305C12.9301 13.2147 12.9875 13.3304 12.9988 13.4548C13.0101 13.5793 12.9744 13.7034 12.8987 13.8028C12.823 13.9023 12.7129 13.9697 12.5899 13.992L12.4999 14H3.49995C3.375 14.0002 3.25449 13.9537 3.16216 13.8695C3.06983 13.7853 3.01236 13.6696 3.00107 13.5452C2.98978 13.4207 3.02549 13.2966 3.10116 13.1972C3.17684 13.0977 3.287 13.0303 3.40995 13.008L3.49995 13H12.4999H3.49995ZM7.90995 1.008L7.99995 1C8.11697 0.999961 8.2303 1.04097 8.3202 1.11589C8.41011 1.19081 8.47088 1.29489 8.49194 1.41L8.49995 1.5V10.292L11.1819 7.611C11.2647 7.52817 11.3738 7.477 11.4904 7.4664C11.607 7.4558 11.7236 7.48645 11.8199 7.553L11.8899 7.611C11.9726 7.69386 12.0236 7.80309 12.034 7.91967C12.0444 8.03626 12.0136 8.1528 11.9469 8.249L11.8889 8.318L8.35395 11.854C8.27109 11.9367 8.16186 11.9877 8.04527 11.9981C7.92869 12.0085 7.81214 11.9777 7.71595 11.911L7.64595 11.854L4.11095 8.318C4.02236 8.22981 3.97002 8.11164 3.96424 7.98678C3.95846 7.86191 3.99966 7.73941 4.07972 7.64342C4.15978 7.54742 4.27289 7.4849 4.39676 7.46816C4.52063 7.45142 4.64628 7.48169 4.74895 7.553L4.81794 7.611L7.49995 10.292V1.5C7.49991 1.38297 7.54092 1.26964 7.61583 1.17974C7.69075 1.08984 7.79483 1.02906 7.90995 1.008L7.99995 1L7.90995 1.008Z" fill="white"/>
</svg>
